<svg width="32" height="32" viewBox="0 0 32 32" fill="none" xmlns="http://www.w3.org/2000/svg">
<path d="M17.332 24.0002H6.66536C5.86536 24.0002 5.33203 23.4668 5.33203 22.6668C5.33203 21.8668 5.86536 21.3335 6.66536 21.3335H17.332C18.132 21.3335 18.6654 21.8668 18.6654 22.6668C18.6654 23.4668 18.132 24.0002 17.332 24.0002Z" fill="white"/>
<path d="M25.332 17.3332H6.66536C5.86536 17.3332 5.33203 16.7998 5.33203 15.9998C5.33203 15.1998 5.86536 14.6665 6.66536 14.6665H25.332C26.132 14.6665 26.6654 15.1998 26.6654 15.9998C26.6654 16.7998 26.132 17.3332 25.332 17.3332Z" fill="white"/>
<path d="M25.332 10.6667H14.6654C13.8654 10.6667 13.332 10.1333 13.332 9.33333C13.332 8.53333 13.8654 8 14.6654 8H25.332C26.132 8 26.6654 8.53333 26.6654 9.33333C26.6654 10.1333 26.132 10.6667 25.332 10.6667Z" fill="white"/>
</svg>
